<svg xmlns="http://www.w3.org/2000/svg" viewBox="0 0 48 48" fill="none" aria-hidden="true">
  <rect x="14" y="5" width="20" height="11" rx="1.5" stroke="#0891b2" stroke-width="2" fill="#fff"/>
  <rect x="17.5" y="8" width="13" height="5.5" rx="1" fill="#67e8f9"/>
  <rect x="11.5" y="16" width="25" height="24" rx="2.5" stroke="#0891b2" stroke-width="2" fill="#ecfeff"/>
  <rect x="15" y="19.5" width="3.8" height="4.8" rx="0.6" fill="#22d3ee"/>
  <rect x="19.8" y="19.5" width="3.8" height="4.8" rx="0.6" fill="#22d3ee"/>
  <rect x="24.6" y="19.5" width="3.8" height="4.8" rx="0.6" fill="#22d3ee"/>
  <rect x="29.4" y="19.5" width="3.8" height="4.8" rx="0.6" fill="#22d3ee"/>
  <rect x="15" y="25.8" width="3.8" height="4.8" rx="0.6" fill="#22d3ee"/>
  <rect x="19.8" y="25.8" width="3.8" height="4.8" rx="0.6" fill="#22d3ee"/>
  <rect x="24.6" y="25.8" width="3.8" height="4.8" rx="0.6" fill="#22d3ee"/>
  <rect x="29.4" y="25.8" width="3.8" height="4.8" rx="0.6" fill="#22d3ee"/>
  <rect x="16.2" y="32.2" width="4.8" height="5.8" rx="0.6" fill="#c8a96e"/>
  <rect x="22.1" y="32.2" width="4.8" height="5.8" rx="0.6" fill="#c8a96e"/>
  <rect x="28" y="32.2" width="4.8" height="5.8" rx="0.6" fill="#c8a96e"/>
  <circle cx="17" cy="41.5" r="2.6" fill="#0891b2"/>
  <circle cx="31" cy="41.5" r="2.6" fill="#0891b2"/>
</svg>
